<?xml version="1.0" encoding="utf-8"?>
<!-- Generator: Adobe Illustrator 27.5.0, SVG Export Plug-In . SVG Version: 6.00 Build 0)  -->
<svg version="1.1" xmlns="http://www.w3.org/2000/svg" xmlns:xlink="http://www.w3.org/1999/xlink" x="0px" y="0px"
	 viewBox="0 0 500 500" style="enable-background:new 0 0 500 500;" xml:space="preserve">
<g id="Background_Complete">
	<g>
		<g>
			<g>
				<g>
					<rect x="89.862" y="192.084" style="fill:#EBEBEB;" width="63.872" height="16.897"/>
				</g>
			</g>
		</g>
		<g>
			<g>
				<g>
					<g>
						<path style="fill:#E0E0E0;" d="M126.726,226.779c-0.007-0.007-0.013-0.11-0.02-0.307c-0.005-0.226-0.012-0.511-0.021-0.867
							c-0.011-0.795-0.027-1.904-0.048-3.325c-0.026-2.917-0.063-7.111-0.109-12.398l0.198,0.198
							c-14.584,0.029-37.777,0.076-63.868,0.128c0.144-0.145-0.328,0.325,0.322-0.325v0.004v0.009v0.017v0.034v0.068v0.136v0.272
							l0,0.543v1.083c0,0.721,0,1.439,0,2.156c0,1.432-0.001,2.854-0.001,4.264c-0.002,2.82-0.004,5.594-0.005,8.311l-0.318-0.318
							c18.188,0.058,34.103,0.108,45.517,0.145c5.686,0.038,10.248,0.069,13.435,0.091c1.55,0.018,2.764,0.032,3.633,0.042
							c0.391,0.009,0.704,0.015,0.95,0.021C126.605,226.765,126.719,226.772,126.726,226.779c0.007,0.007-0.093,0.014-0.296,0.021
							c-0.236,0.005-0.536,0.012-0.911,0.02c-0.852,0.01-2.044,0.024-3.564,0.042c-3.17,0.021-7.707,0.052-13.362,0.091
							c-11.47,0.036-27.462,0.087-45.739,0.145l-0.318,0.001l0-0.319c-0.002-2.717-0.004-5.491-0.005-8.311
							c0-1.41-0.001-2.832-0.001-4.264c0-0.716,0-1.435,0-2.156v-1.083v-0.543v-0.272v-0.136v-0.068v-0.034v-0.017v-0.009v-0.004
							c0.651-0.651,0.183-0.181,0.329-0.326c26.091,0.052,49.284,0.098,63.868,0.127l0.2,0l-0.002,0.198
							c-0.047,5.337-0.084,9.571-0.11,12.516c-0.021,1.402-0.036,2.497-0.048,3.281c-0.008,0.341-0.015,0.615-0.021,0.832
							C126.739,226.695,126.732,226.785,126.726,226.779z"/>
					</g>
				</g>
			</g>
		</g>
	</g>
	<g>
		<g>
			<g>
				<g>
					<rect x="333.549" y="37.653" style="fill:#EBEBEB;" width="63.872" height="16.897"/>
				</g>
			</g>
		</g>
		<g>
			<g>
				<g>
					<g>
						<path style="fill:#E0E0E0;" d="M370.621,71.803c-0.007-0.007-0.013-0.11-0.02-0.307c-0.005-0.226-0.012-0.511-0.021-0.867
							c-0.012-0.795-0.027-1.904-0.048-3.325c-0.026-2.917-0.063-7.111-0.11-12.398l0.198,0.198
							c-14.584,0.029-37.777,0.076-63.868,0.127c0.144-0.145-0.328,0.325,0.322-0.325v0.004v0.009v0.017v0.034v0.068v0.136v0.272
							v0.543v1.084c0,0.721,0,1.439-0.001,2.155c0,1.432-0.001,2.854-0.001,4.264c-0.002,2.82-0.004,5.594-0.005,8.311l-0.318-0.318
							c18.188,0.058,34.102,0.108,45.517,0.145c5.686,0.038,10.248,0.069,13.435,0.091c1.55,0.018,2.764,0.032,3.633,0.042
							c0.391,0.009,0.704,0.015,0.95,0.021C370.501,71.789,370.614,71.796,370.621,71.803c0.007,0.007-0.093,0.014-0.296,0.021
							c-0.236,0.005-0.536,0.012-0.911,0.02c-0.852,0.01-2.043,0.024-3.564,0.042c-3.169,0.022-7.707,0.052-13.362,0.091
							c-11.47,0.036-27.462,0.087-45.739,0.145l-0.318,0.001l0-0.319c-0.002-2.717-0.004-5.491-0.005-8.311
							c0-1.41-0.001-2.832-0.001-4.264c0-0.716,0-1.435-0.001-2.155v-1.084v-0.543v-0.272v-0.136V54.97v-0.034v-0.017v-0.009v-0.004
							c0.651-0.651,0.183-0.181,0.329-0.326c26.091,0.052,49.285,0.098,63.868,0.127l0.2,0l-0.002,0.198
							c-0.047,5.338-0.084,9.571-0.109,12.516c-0.021,1.403-0.037,2.496-0.048,3.281c-0.008,0.341-0.015,0.615-0.021,0.832
							C370.634,71.719,370.628,71.81,370.621,71.803z"/>
					</g>
				</g>
			</g>
		</g>
	</g>
	<g>
		<g>
			<g>
				<g>
					<g>
						<rect x="334.81" y="115.991" style="fill:#FFFFFF;" width="105.933" height="147.486"/>
					</g>
				</g>
			</g>
			<g>
				<g>
					<g>
						<g>
							<path style="fill:#E0E0E0;" d="M440.742,263.477c0,0-0.009-0.244-0.013-0.711c-0.003-0.474-0.008-1.166-0.013-2.075
								c-0.006-1.832-0.015-4.532-0.027-8.043c-0.014-7.028-0.035-17.293-0.061-30.284c-0.027-25.96-0.066-62.803-0.112-106.374
								l0.226,0.226c-31.974,0.007-67.974,0.015-105.92,0.023h-0.012l0.249-0.249c-0.017,55.192-0.034,106.257-0.047,147.486
								l-0.202-0.202c32.126,0.044,58.584,0.08,77.021,0.106c9.226,0.022,16.443,0.04,21.363,0.052
								c2.456,0.01,4.336,0.017,5.613,0.023C440.077,263.462,440.742,263.477,440.742,263.477s-0.636,0.015-1.893,0.022
								c-1.268,0.005-3.136,0.013-5.575,0.023c-4.91,0.012-12.112,0.029-21.318,0.052c-18.467,0.025-44.969,0.062-77.147,0.106
								l-0.202,0l0-0.203c-0.013-41.23-0.029-92.294-0.047-147.486l0-0.249h0.249h0.012c37.946,0.008,73.946,0.016,105.92,0.023
								h0.227l0,0.226c-0.046,43.632-0.085,80.526-0.112,106.522c-0.026,12.968-0.046,23.216-0.06,30.232
								c-0.012,3.491-0.021,6.176-0.027,7.998c-0.006,0.898-0.01,1.581-0.013,2.049C440.751,263.25,440.742,263.477,440.742,263.477
								z"/>
						</g>
					</g>
				</g>
			</g>
		</g>
		<g>
			<g>
				<g>
					<rect x="345.485" y="193.962" style="fill:#F5F5F5;" width="82.536" height="5.316"/>
				</g>
			</g>
		</g>
		<g>
			<g>
				<g>
					<rect x="364.463" y="191.95" style="fill:#F5F5F5;" width="46.5" height="9.607"/>
				</g>
			</g>
		</g>
		<g>
			<g>
				<g>
					<path style="fill:#E0E0E0;" d="M380.397,151.561c4.743,0,6.918,2.872,6.918,7.571v15.359c0,4.655-2.176,7.527-6.918,7.527
						h-7.135v-30.457H380.397z M380.354,178.928c2.436,0,3.611-1.523,3.611-4.307v-15.663c0-2.785-1.175-4.307-3.655-4.307h-3.655
						v24.278H380.354z"/>
				</g>
			</g>
			<g>
				<g>
					<path style="fill:#E0E0E0;" d="M390.229,158.914c0-4.656,2.306-7.658,6.961-7.658c4.699,0,7.005,3.002,7.005,7.658v15.75
						c0,4.612-2.306,7.658-7.005,7.658c-4.655,0-6.961-3.046-6.961-7.658V158.914z M393.579,174.839
						c0,2.785,1.175,4.394,3.611,4.394c2.48,0,3.612-1.61,3.612-4.394V158.74c0-2.741-1.131-4.395-3.612-4.395
						c-2.436,0-3.611,1.654-3.611,4.395V174.839z"/>
				</g>
			</g>
		</g>
		<g>
			<g>
				<g>
					<path style="fill:#E0E0E0;" d="M382.547,209.591v33.207h-3.7v-33.207H382.547z"/>
				</g>
			</g>
			<g>
				<g>
					<path style="fill:#E0E0E0;" d="M391.181,242.798v-29.839h-6.12v-3.368H401v3.368h-6.119v29.839H391.181z"/>
				</g>
			</g>
		</g>
		<g>
			<g>
				<g>
					<g>
						<polygon style="fill:#F5F5F5;" points="348.241,154.083 352.258,168.596 355.794,164.583 361.684,174.601 357.782,157.368 
							354.135,161.507 						"/>
					</g>
				</g>
			</g>
		</g>
		<g>
			<g>
				<g>
					<g>
						<polygon style="fill:#F5F5F5;" points="427.109,152.619 423.092,167.132 419.556,163.119 413.666,173.137 417.568,155.904 
							421.215,160.043 						"/>
					</g>
				</g>
			</g>
		</g>
		<g>
			<g>
				<g>
					<g>
						<polygon style="fill:#E0E0E0;" points="387.211,123.16 381.98,140.475 388.144,138.668 387.699,152.619 394.792,132.617 
							388.433,134.48 						"/>
					</g>
				</g>
			</g>
		</g>
		<g>
			<g>
				<g>
					<polygon style="fill:#E0E0E0;" points="410.422,178.329 409.465,178.329 409.465,139.255 367.307,139.255 367.307,178.329 
						366.35,178.329 366.35,138.298 410.422,138.298 					"/>
				</g>
			</g>
		</g>
		<g>
			<g>
				<g>
					<polygon style="fill:#E0E0E0;" points="410.422,248.903 366.35,248.903 366.35,208.871 367.307,208.871 367.307,247.946 
						409.465,247.946 409.465,208.871 410.422,208.871 					"/>
				</g>
			</g>
		</g>
		<g>
			<g>
				<g>
					<path style="fill:#E0E0E0;" d="M361.29,214.853h-3.154c-1.752,0-3.173-1.421-3.173-3.173v-30.178
						c0-1.752,1.421-3.173,3.173-3.173h3.154c1.752,0,3.173,1.421,3.173,3.173v30.178
						C364.463,213.433,363.042,214.853,361.29,214.853z"/>
				</g>
			</g>
		</g>
		<g>
			<g>
				<g>
					<path style="fill:#E0E0E0;" d="M417.291,214.853h-3.154c-1.752,0-3.173-1.421-3.173-3.173v-30.178
						c0-1.752,1.421-3.173,3.173-3.173h3.154c1.752,0,3.173,1.421,3.173,3.173v30.178
						C420.464,213.433,419.043,214.853,417.291,214.853z"/>
				</g>
			</g>
		</g>
		<g>
			<g>
				<g>
					<g>
						<rect x="351.05" y="191.04" style="fill:#EBEBEB;" width="3.912" height="10.174"/>
					</g>
				</g>
			</g>
			<g>
				<g>
					<g>
						<rect x="420.388" y="191.04" style="fill:#EBEBEB;" width="3.912" height="10.174"/>
					</g>
				</g>
			</g>
		</g>
		<g>
			<g>
				<g>
					
						<rect x="326.191" y="118.073" transform="matrix(0.7932 -0.609 0.609 0.7932 -3.0014 232.6318)" style="fill:#E0E0E0;" width="29.632" height="5.323"/>
				</g>
			</g>
		</g>
		<g>
			<g>
				<g>
					
						<rect x="419.021" y="256.897" transform="matrix(0.7932 -0.609 0.609 0.7932 -68.343 317.8708)" style="fill:#E0E0E0;" width="29.632" height="5.323"/>
				</g>
			</g>
		</g>
	</g>
	<g>
		<g>
			<g>
				<g>
					<g>
						<path style="fill:#E0E0E0;" d="M112.89,83.437c-0.007-0.007-0.013-0.11-0.02-0.307c-0.005-0.226-0.012-0.511-0.021-0.867
							c-0.012-0.795-0.028-1.904-0.048-3.325c-0.026-2.917-0.063-7.111-0.109-12.398l0.198,0.198
							c-14.584,0.029-37.777,0.075-63.868,0.127c0.144-0.145-0.328,0.325,0.322-0.325v0.004v0.008v0.017v0.034v0.068v0.136v0.272
							v0.543v1.083c0,0.721,0,1.44,0,2.155c0,1.432-0.001,2.854-0.001,4.264c-0.002,2.82-0.004,5.594-0.006,8.311l-0.318-0.318
							c18.188,0.058,34.103,0.108,45.517,0.145c5.686,0.038,10.248,0.069,13.435,0.091c1.55,0.018,2.764,0.032,3.633,0.042
							c0.391,0.008,0.704,0.015,0.95,0.02C112.77,83.423,112.883,83.43,112.89,83.437c0.007,0.007-0.093,0.014-0.296,0.021
							c-0.236,0.005-0.536,0.012-0.911,0.02c-0.853,0.01-2.043,0.024-3.564,0.042c-3.169,0.021-7.707,0.052-13.362,0.091
							c-11.47,0.036-27.462,0.087-45.739,0.145L48.7,83.756l0-0.32c-0.002-2.717-0.003-5.491-0.005-8.311
							c0-1.41-0.001-2.832-0.001-4.264c0-0.716,0-1.434,0-2.155l0-1.083v-0.543v-0.272v-0.136v-0.068V66.57v-0.017v-0.008V66.54
							c0.651-0.651,0.183-0.181,0.329-0.326c26.091,0.052,49.284,0.098,63.868,0.128l0.2,0l-0.002,0.198
							c-0.047,5.338-0.084,9.571-0.109,12.516c-0.021,1.403-0.037,2.496-0.048,3.281c-0.009,0.341-0.015,0.615-0.021,0.832
							C112.903,83.353,112.897,83.443,112.89,83.437z"/>
					</g>
				</g>
			</g>
		</g>
		<g>
			<g>
				<g>
					<g>
						<path style="fill:#E0E0E0;" d="M121.55,66.539c-0.008-0.008-0.016-0.117-0.024-0.322c-0.007-0.243-0.015-0.536-0.025-0.895
							c-0.014-0.832-0.034-1.962-0.058-3.388c-0.03-2.963-0.073-7.147-0.126-12.292l0.234,0.234
							c-9.942,0.024-23.467,0.056-38.374,0.092c-0.293,0.291,0.393-0.397,0.323-0.324v0.004v0.009v0.017v0.035v0.069v0.139v0.278
							v0.554l0,1.105c0,0.735-0.001,1.465-0.001,2.192c-0.001,1.452-0.002,2.887-0.003,4.301c-0.004,2.826-0.008,5.567-0.011,8.193
							l-0.31-0.31c11.078,0.059,20.617,0.11,27.452,0.147c3.371,0.036,6.074,0.065,7.997,0.086c0.898,0.016,1.613,0.029,2.156,0.039
							C121.274,66.514,121.538,66.526,121.55,66.539c0.013,0.013-0.226,0.025-0.697,0.038c-0.527,0.01-1.221,0.023-2.092,0.039
							c-1.906,0.02-4.584,0.049-7.926,0.086c-6.888,0.037-16.498,0.088-27.661,0.147l-0.31,0.002l-0.001-0.312
							c-0.004-2.626-0.008-5.366-0.012-8.193c-0.001-1.414-0.002-2.849-0.003-4.301c0-0.727,0-1.457-0.001-2.192l0-1.105v-0.554
							v-0.278v-0.139v-0.069v-0.035v-0.017v-0.009v-0.004c-0.071,0.069,0.618-0.618,0.328-0.327
							c14.907,0.036,28.432,0.068,38.374,0.092l0.237,0.001l-0.003,0.234c-0.053,5.205-0.095,9.437-0.126,12.434
							c-0.025,1.404-0.044,2.517-0.058,3.335C121.582,66.168,121.567,66.555,121.55,66.539z"/>
					</g>
				</g>
			</g>
		</g>
	</g>
	<g>
		<g>
			<g>
				<g>
					<g>
						<path style="fill:#E0E0E0;" d="M95.815,369.618c-0.007-0.007-0.013-0.11-0.02-0.307c-0.005-0.226-0.012-0.511-0.021-0.867
							c-0.012-0.795-0.028-1.904-0.048-3.325c-0.026-2.917-0.063-7.111-0.109-12.398l0.198,0.198
							c-14.584,0.029-37.777,0.075-63.868,0.127c0.144-0.145-0.328,0.325,0.322-0.325v0.004v0.009v0.017v0.034v0.068v0.136v0.272
							v0.543v1.083c0,0.721,0,1.44,0,2.155c0,1.432-0.001,2.854-0.001,4.264c-0.002,2.82-0.003,5.594-0.005,8.311l-0.318-0.318
							c18.188,0.058,34.103,0.108,45.517,0.145c5.686,0.038,10.248,0.069,13.435,0.091c1.55,0.018,2.764,0.032,3.633,0.042
							c0.391,0.008,0.704,0.015,0.95,0.02C95.694,369.604,95.808,369.611,95.815,369.618c0.007,0.007-0.093,0.014-0.296,0.021
							c-0.236,0.005-0.536,0.012-0.911,0.02c-0.852,0.01-2.043,0.024-3.564,0.042c-3.169,0.021-7.707,0.052-13.362,0.09
							c-11.47,0.036-27.462,0.087-45.739,0.145l-0.318,0.001l0-0.32c-0.002-2.717-0.003-5.491-0.005-8.311
							c0-1.41-0.001-2.832-0.001-4.264c0-0.716,0-1.435,0-2.155l0-1.083v-0.543v-0.272v-0.136v-0.068v-0.034v-0.017v-0.009v-0.004
							c0.651-0.651,0.183-0.18,0.329-0.326c26.091,0.052,49.285,0.098,63.868,0.128l0.2,0l-0.001,0.198
							c-0.047,5.338-0.084,9.571-0.11,12.516c-0.021,1.402-0.037,2.496-0.048,3.281c-0.009,0.341-0.015,0.615-0.021,0.832
							C95.828,369.534,95.822,369.624,95.815,369.618z"/>
					</g>
				</g>
			</g>
		</g>
		<g>
			<g>
				<g>
					<g>
						<path style="fill:#E0E0E0;" d="M104.475,352.721c-0.008-0.008-0.016-0.117-0.024-0.322c-0.007-0.242-0.015-0.536-0.025-0.895
							c-0.014-0.832-0.034-1.962-0.058-3.388c-0.03-2.963-0.073-7.147-0.126-12.292l0.234,0.234
							c-9.942,0.024-23.467,0.056-38.374,0.092c-0.292,0.291,0.393-0.397,0.323-0.324v0.004v0.009v0.017v0.035v0.069v0.139v0.278
							v0.554l0,1.104c0,0.735-0.001,1.465-0.001,2.192c-0.001,1.452-0.002,2.887-0.003,4.301c-0.004,2.826-0.008,5.567-0.012,8.193
							l-0.31-0.31c11.079,0.059,20.617,0.11,27.452,0.147c3.372,0.036,6.074,0.065,7.997,0.086c0.898,0.016,1.613,0.029,2.156,0.039
							C104.199,352.695,104.462,352.708,104.475,352.721c0.013,0.013-0.226,0.025-0.697,0.038c-0.527,0.01-1.221,0.023-2.092,0.039
							c-1.906,0.021-4.584,0.049-7.926,0.086c-6.888,0.037-16.499,0.088-27.662,0.147l-0.309,0.002l-0.001-0.312
							c-0.004-2.626-0.008-5.366-0.011-8.193c-0.001-1.414-0.002-2.849-0.003-4.301c0-0.726,0-1.457-0.001-2.192l0-1.104v-0.554
							v-0.278v-0.139v-0.069v-0.035v-0.017v-0.009v-0.004c-0.071,0.069,0.617-0.618,0.328-0.327
							c14.907,0.036,28.432,0.068,38.374,0.092l0.236,0.001l-0.002,0.234c-0.053,5.205-0.096,9.437-0.126,12.434
							c-0.025,1.404-0.044,2.517-0.058,3.335C104.507,352.349,104.491,352.737,104.475,352.721z"/>
					</g>
				</g>
			</g>
		</g>
	</g>
	<g>
		<g>
			<g>
				<g>
					<g>
						<path style="fill:#E0E0E0;" d="M416.148,369.267c-0.007-0.007-0.013-0.11-0.02-0.307c-0.005-0.226-0.012-0.511-0.021-0.867
							c-0.012-0.795-0.028-1.904-0.048-3.325c-0.026-2.917-0.063-7.111-0.11-12.398l0.198,0.198
							c-14.584,0.029-37.777,0.075-63.868,0.127c0.144-0.145-0.328,0.325,0.322-0.325v0.004v0.009v0.017v0.034v0.068v0.136v0.272
							v0.543v1.083c0,0.721,0,1.44,0,2.156c-0.001,1.432-0.001,2.854-0.001,4.264c-0.002,2.82-0.004,5.594-0.005,8.311l-0.318-0.318
							c18.188,0.058,34.103,0.108,45.517,0.145c5.686,0.039,10.248,0.069,13.435,0.091c1.55,0.018,2.764,0.032,3.633,0.042
							c0.391,0.008,0.704,0.015,0.95,0.02C416.028,369.254,416.141,369.26,416.148,369.267c0.007,0.007-0.093,0.014-0.296,0.021
							c-0.236,0.005-0.536,0.012-0.911,0.021c-0.853,0.01-2.043,0.024-3.564,0.042c-3.169,0.021-7.707,0.052-13.362,0.091
							c-11.471,0.036-27.462,0.087-45.739,0.145l-0.318,0.001l0-0.32c-0.002-2.717-0.003-5.491-0.005-8.311
							c0-1.41-0.001-2.832-0.001-4.264c0-0.716,0-1.434,0-2.156l0-1.083v-0.543v-0.272v-0.136v-0.068V352.4v-0.017v-0.009v-0.004
							c0.651-0.651,0.183-0.181,0.329-0.326c26.091,0.052,49.285,0.098,63.868,0.128l0.2,0l-0.001,0.198
							c-0.047,5.338-0.084,9.571-0.109,12.516c-0.021,1.402-0.037,2.496-0.048,3.281c-0.009,0.341-0.015,0.615-0.021,0.832
							C416.161,369.183,416.155,369.274,416.148,369.267z"/>
					</g>
				</g>
			</g>
		</g>
		<g>
			<g>
				<g>
					<g>
						<path style="fill:#E0E0E0;" d="M424.808,352.37c-0.008-0.008-0.016-0.117-0.025-0.322c-0.007-0.242-0.015-0.536-0.025-0.895
							c-0.014-0.831-0.034-1.962-0.058-3.388c-0.03-2.963-0.073-7.147-0.126-12.292l0.234,0.234
							c-9.942,0.024-23.467,0.056-38.374,0.092c-0.293,0.291,0.393-0.397,0.323-0.324v0.004v0.009v0.017v0.035v0.069v0.139v0.278
							v0.554l0,1.105c0,0.735-0.001,1.465-0.001,2.191c-0.001,1.452-0.002,2.887-0.003,4.301c-0.004,2.826-0.008,5.567-0.012,8.193
							l-0.31-0.31c11.078,0.059,20.617,0.11,27.452,0.147c3.371,0.036,6.074,0.065,7.997,0.086c0.898,0.016,1.613,0.029,2.156,0.039
							C424.532,352.345,424.796,352.357,424.808,352.37c0.013,0.013-0.226,0.025-0.697,0.038c-0.527,0.01-1.221,0.023-2.092,0.039
							c-1.906,0.02-4.584,0.049-7.926,0.086c-6.888,0.037-16.498,0.087-27.661,0.147l-0.31,0.002l-0.001-0.312
							c-0.004-2.626-0.008-5.366-0.012-8.193c-0.001-1.414-0.002-2.849-0.003-4.301c0-0.726,0-1.457-0.001-2.191l0-1.105v-0.554
							v-0.278v-0.139v-0.069v-0.035v-0.017v-0.009v-0.004c-0.071,0.069,0.618-0.618,0.328-0.327
							c14.907,0.036,28.432,0.068,38.374,0.092l0.237,0.001l-0.002,0.233c-0.053,5.205-0.096,9.437-0.126,12.434
							c-0.025,1.404-0.044,2.517-0.058,3.335C424.84,351.999,424.825,352.386,424.808,352.37z"/>
					</g>
				</g>
			</g>
		</g>
	</g>
	<g>
		<g>
			
				<rect x="399.775" y="422.368" transform="matrix(-1.836970e-16 1 -1 -1.836970e-16 855.699 3.6314)" style="fill:#EBEBEB;" width="52.518" height="14.594"/>
		</g>
		<g>
			<g>
				<path style="fill:#EBEBEB;" d="M403.399,407.609v-16.331c0-1.245,1.009-2.255,2.255-2.255h40.761
					c1.245,0,2.255,1.009,2.255,2.255v16.331c0,1.245-1.009,2.255-2.255,2.255h-40.761
					C404.408,409.864,403.399,408.854,403.399,407.609z"/>
			</g>
			<g>
				<g>
					<path style="fill:#E0E0E0;" d="M403.399,407.609c0.045-0.014-0.046,0.488,0.412,1.203c0.234,0.339,0.632,0.717,1.219,0.882
						c0.577,0.157,1.32,0.046,2.127,0.068c3.282-0.02,7.972-0.048,13.753-0.083c5.817-0.016,12.727-0.035,20.397-0.056
						c0.96-0.001,1.931-0.003,2.914-0.005c0.491-0.001,0.986-0.001,1.482-0.002l0.743-0.003c0.223,0,0.444-0.047,0.654-0.122
						c0.862-0.307,1.417-1.197,1.316-2.175c-0.001-1.025-0.002-2.06-0.003-3.104c-0.002-4.177-0.003-8.502-0.005-12.931
						c0.019-0.996-0.804-1.901-1.781-1.986c-1.038-0.024-2.165-0.007-3.232-0.013c-2.158-0.001-4.284-0.003-6.373-0.004
						c-4.177-0.005-8.207-0.01-12.047-0.015c-3.838-0.009-7.485-0.017-10.901-0.024c-1.707-0.005-3.355-0.01-4.94-0.015
						c-0.792-0.003-1.569-0.006-2.328-0.008c-0.38-0.001-0.756-0.003-1.127-0.004c-0.345-0.004-0.678,0.079-0.976,0.229
						c-0.596,0.303-1.013,0.895-1.102,1.526c-0.055,0.635-0.021,1.348-0.036,1.989c-0.007,1.306-0.014,2.539-0.02,3.694
						c-0.017,2.297-0.032,4.281-0.044,5.916c-0.021,1.597-0.037,2.85-0.049,3.739c-0.011,0.405-0.019,0.726-0.026,0.972
						C403.417,407.497,403.408,407.609,403.399,407.609c-0.009,0-0.018-0.112-0.027-0.331c-0.007-0.247-0.015-0.568-0.026-0.972
						c-0.012-0.888-0.028-2.142-0.049-3.739c-0.012-1.635-0.027-3.619-0.044-5.916c-0.006-1.155-0.013-2.388-0.02-3.694
						c0.01-0.665-0.036-1.302,0.02-2.041c0.099-0.739,0.58-1.438,1.279-1.801c0.348-0.18,0.747-0.281,1.146-0.279
						c0.371-0.001,0.747-0.003,1.127-0.004c0.76-0.003,1.536-0.005,2.328-0.008c1.585-0.005,3.234-0.01,4.94-0.015
						c3.416-0.008,7.064-0.016,10.901-0.024c3.84-0.005,7.87-0.01,12.047-0.015c2.089-0.001,4.215-0.002,6.373-0.004
						c1.091,0.006,2.139-0.015,3.286,0.014c1.235,0.106,2.272,1.247,2.247,2.503c-0.002,4.429-0.004,8.754-0.005,12.931
						c-0.001,1.044-0.002,2.079-0.003,3.104c0.124,1.078-0.574,2.295-1.65,2.642c-0.262,0.094-0.539,0.15-0.816,0.151l-0.751,0.001
						c-0.497-0.001-0.991-0.001-1.482-0.002c-0.983-0.002-1.954-0.003-2.914-0.005c-7.67-0.021-14.58-0.04-20.397-0.056
						c-5.781-0.035-10.471-0.063-13.753-0.083c-0.405-0.004-0.788-0.008-1.149-0.012c-0.353,0.001-0.715-0.007-1.022-0.111
						c-0.624-0.194-1.032-0.608-1.262-0.973c-0.23-0.374-0.301-0.708-0.323-0.927C403.376,407.722,403.399,407.609,403.399,407.609z
						"/>
				</g>
			</g>
		</g>
		<g>
			<g>
				<path style="fill:#EBEBEB;" d="M403.399,470.55v-16.331c0-1.245,1.009-2.255,2.255-2.255h40.761
					c1.245,0,2.255,1.009,2.255,2.255v16.331c0,1.245-1.009,2.255-2.255,2.255h-40.761
					C404.408,472.804,403.399,471.795,403.399,470.55z"/>
			</g>
			<g>
				<g>
					<path style="fill:#E0E0E0;" d="M403.399,470.55c0.045-0.014-0.046,0.488,0.412,1.203c0.234,0.339,0.632,0.717,1.219,0.882
						c0.577,0.157,1.32,0.046,2.127,0.068c3.282-0.02,7.972-0.048,13.753-0.083c5.817-0.016,12.727-0.035,20.397-0.056
						c0.96-0.001,1.931-0.003,2.914-0.005c0.491-0.001,0.986-0.001,1.482-0.002l0.743-0.003c0.223-0.001,0.444-0.047,0.654-0.122
						c0.862-0.306,1.417-1.197,1.316-2.175c-0.001-1.025-0.002-2.06-0.003-3.104c-0.002-4.177-0.003-8.502-0.005-12.931
						c0.019-0.996-0.804-1.901-1.781-1.986c-1.038-0.024-2.165-0.007-3.232-0.013c-2.158-0.001-4.284-0.003-6.373-0.004
						c-4.177-0.005-8.207-0.01-12.047-0.015c-3.838-0.008-7.485-0.016-10.901-0.024c-1.707-0.005-3.355-0.01-4.94-0.015
						c-0.792-0.003-1.569-0.005-2.328-0.008c-0.38-0.001-0.756-0.003-1.127-0.004c-0.345-0.004-0.678,0.078-0.976,0.228
						c-0.596,0.303-1.013,0.895-1.102,1.526c-0.055,0.635-0.021,1.348-0.036,1.989c-0.007,1.306-0.014,2.539-0.02,3.694
						c-0.017,2.297-0.032,4.281-0.044,5.916c-0.021,1.597-0.037,2.85-0.049,3.739c-0.011,0.405-0.019,0.726-0.026,0.972
						C403.417,470.437,403.408,470.55,403.399,470.55c-0.009,0-0.018-0.112-0.027-0.331c-0.007-0.247-0.015-0.568-0.026-0.972
						c-0.012-0.888-0.028-2.142-0.049-3.739c-0.012-1.635-0.027-3.619-0.044-5.916c-0.006-1.155-0.013-2.388-0.02-3.694
						c0.01-0.665-0.036-1.302,0.02-2.042c0.099-0.739,0.58-1.438,1.279-1.801c0.348-0.18,0.747-0.281,1.146-0.279
						c0.371-0.001,0.747-0.003,1.127-0.004c0.76-0.003,1.536-0.005,2.328-0.008c1.585-0.005,3.234-0.01,4.94-0.015
						c3.416-0.008,7.064-0.016,10.901-0.024c3.84-0.005,7.87-0.01,12.047-0.015c2.089-0.001,4.215-0.003,6.373-0.004
						c1.091,0.006,2.139-0.015,3.286,0.014c1.235,0.106,2.272,1.247,2.247,2.503c-0.002,4.429-0.004,8.754-0.005,12.931
						c-0.001,1.044-0.002,2.079-0.003,3.104c0.124,1.078-0.574,2.295-1.65,2.642c-0.262,0.094-0.539,0.15-0.816,0.151l-0.751,0.001
						c-0.497-0.001-0.991-0.001-1.482-0.002c-0.983-0.002-1.954-0.003-2.914-0.005c-7.67-0.021-14.58-0.04-20.397-0.056
						c-5.781-0.035-10.471-0.063-13.753-0.083c-0.405-0.004-0.788-0.008-1.149-0.012c-0.353,0.001-0.715-0.007-1.022-0.11
						c-0.624-0.194-1.032-0.608-1.262-0.973c-0.23-0.374-0.301-0.708-0.323-0.927C403.376,470.663,403.399,470.55,403.399,470.55z"
						/>
				</g>
			</g>
		</g>
		<g>
			<g>
				<path style="fill:#E0E0E0;" d="M435.918,472.506c-0.144,0-0.26-4.532-0.26-10.122c0-5.592,0.117-10.123,0.26-10.123
					c0.144,0,0.26,4.532,0.26,10.123C436.179,467.974,436.062,472.506,435.918,472.506z"/>
			</g>
		</g>
		<g>
			<g>
				<path style="fill:#E0E0E0;" d="M416.965,472.506c-0.144,0-0.26-4.532-0.26-10.122c0-5.592,0.117-10.123,0.26-10.123
					c0.144,0,0.26,4.532,0.26,10.123C417.226,467.974,417.109,472.506,416.965,472.506z"/>
			</g>
		</g>
		<g>
			<g>
				<path style="fill:#E0E0E0;" d="M435.918,409.634c-0.144,0-0.26-4.532-0.26-10.122c0-5.592,0.117-10.123,0.26-10.123
					c0.144,0,0.26,4.531,0.26,10.123C436.179,405.101,436.062,409.634,435.918,409.634z"/>
			</g>
		</g>
		<g>
			<g>
				<path style="fill:#E0E0E0;" d="M416.965,409.634c-0.144,0-0.26-4.532-0.26-10.122c0-5.592,0.117-10.123,0.26-10.123
					c0.144,0,0.26,4.531,0.26,10.123C417.226,405.101,417.109,409.634,416.965,409.634z"/>
			</g>
		</g>
	</g>
</g>
<g id="Background_Simple" style="display:none;">
	<path style="display:inline;fill:#F5F5F5;" d="M74.087,120.912l1.145-3.662c9.656-30.871,35.111-54.333,66.65-60.044
		c4.054-0.734,8.163-1.176,12.291-1.306c29.728-0.934,59.572,14.346,76.512,39.174c9.963,14.602,16.212,32.704,30.732,42.661
		c18.897,12.958,44.136,7.274,66.044,1.129c21.908-6.144,47.18-11.767,66.021,1.274c11.799,8.167,18.4,22.297,21.114,36.47
		c7.185,37.522-10.439,77.014-39.19,101.585c-28.752,24.571-67.029,35.594-104.738,37.23
		c-52.825,2.292-107.562-13.738-146.957-49.654C84.315,229.853,62.55,173.036,74.087,120.912z"/>
</g>
<g id="Desk">
	<g>
		<g>
			<path style="fill:#263238;" d="M468.383,472.804c0,0.144-97.781,0.26-218.372,0.26c-120.633,0-218.393-0.117-218.393-0.26
				c0-0.144,97.76-0.26,218.393-0.26C370.602,472.544,468.383,472.66,468.383,472.804z"/>
		</g>
	</g>
</g>
<g id="Weights">
	<g>
		<g>
			<rect x="342.036" y="441.895" style="fill:#455A64;" width="52.518" height="15.331"/>
		</g>
		<g>
			<g>
				<path style="fill:#455A64;" d="M346.24,472.804h-16.331c-1.245,0-2.255-1.009-2.255-2.255v-40.761
					c0-1.245,1.009-2.255,2.255-2.255h16.331c1.245,0,2.255,1.009,2.255,2.255v40.761
					C348.494,471.795,347.485,472.804,346.24,472.804z"/>
			</g>
			<g>
				<g>
					<path style="fill:#263238;" d="M346.24,472.804c-0.015-0.045,0.488,0.046,1.203-0.412c0.339-0.234,0.717-0.632,0.882-1.219
						c0.157-0.577,0.046-1.32,0.068-2.127c-0.02-3.282-0.048-7.972-0.083-13.753c-0.016-5.817-0.035-12.727-0.056-20.397
						c-0.002-0.96-0.003-1.931-0.005-2.914c-0.001-0.491-0.001-0.986-0.002-1.483l-0.003-0.743c0-0.223-0.047-0.444-0.122-0.654
						c-0.306-0.862-1.196-1.417-2.175-1.316c-1.025,0.001-2.06,0.002-3.104,0.003c-4.177,0.002-8.502,0.004-12.931,0.005
						c-0.996-0.019-1.901,0.804-1.986,1.781c-0.024,1.038-0.007,2.165-0.013,3.232c-0.001,2.158-0.003,4.284-0.004,6.373
						c-0.005,4.177-0.01,8.207-0.015,12.047c-0.009,3.838-0.017,7.485-0.024,10.901c-0.005,1.706-0.01,3.355-0.015,4.94
						c-0.003,0.792-0.006,1.569-0.008,2.328c-0.001,0.38-0.003,0.756-0.004,1.127c-0.004,0.346,0.079,0.678,0.228,0.976
						c0.303,0.596,0.895,1.013,1.526,1.102c0.635,0.055,1.348,0.021,1.989,0.035c1.306,0.007,2.539,0.014,3.694,0.02
						c2.297,0.017,4.281,0.032,5.916,0.044c1.597,0.021,2.85,0.037,3.739,0.049c0.405,0.011,0.726,0.019,0.972,0.026
						C346.128,472.786,346.24,472.795,346.24,472.804c0,0.009-0.112,0.018-0.331,0.027c-0.247,0.007-0.568,0.015-0.972,0.026
						c-0.888,0.012-2.142,0.028-3.739,0.049c-1.635,0.012-3.619,0.027-5.916,0.044c-1.155,0.006-2.388,0.013-3.694,0.02
						c-0.665-0.01-1.302,0.036-2.041-0.021c-0.739-0.099-1.438-0.58-1.801-1.279c-0.18-0.348-0.281-0.747-0.279-1.146
						c-0.001-0.372-0.003-0.747-0.004-1.127c-0.003-0.76-0.005-1.536-0.008-2.328c-0.005-1.585-0.01-3.234-0.015-4.94
						c-0.008-3.416-0.016-7.064-0.024-10.901c-0.005-3.84-0.01-7.87-0.015-12.047c-0.001-2.089-0.003-4.215-0.004-6.373
						c0.006-1.091-0.015-2.139,0.014-3.286c0.106-1.235,1.247-2.272,2.503-2.247c4.429,0.002,8.754,0.004,12.931,0.005
						c1.044,0.001,2.079,0.002,3.104,0.003c1.078-0.124,2.295,0.574,2.642,1.65c0.094,0.262,0.15,0.539,0.15,0.816l0.001,0.751
						c-0.001,0.497-0.001,0.991-0.002,1.483c-0.001,0.983-0.003,1.954-0.005,2.914c-0.021,7.67-0.04,14.581-0.056,20.397
						c-0.035,5.781-0.063,10.471-0.083,13.753c-0.004,0.405-0.008,0.788-0.012,1.149c0.001,0.353-0.007,0.715-0.111,1.022
						c-0.194,0.624-0.608,1.032-0.973,1.262c-0.375,0.23-0.708,0.301-0.927,0.323C346.353,472.827,346.24,472.804,346.24,472.804z"
						/>
				</g>
			</g>
		</g>
		<g>
			<g>
				<path style="fill:#455A64;" d="M409.18,472.804h-16.331c-1.245,0-2.255-1.009-2.255-2.255v-40.761
					c0-1.245,1.009-2.255,2.255-2.255h16.331c1.245,0,2.255,1.009,2.255,2.255v40.761
					C411.435,471.795,410.425,472.804,409.18,472.804z"/>
			</g>
			<g>
				<g>
					<path style="fill:#263238;" d="M409.18,472.804c-0.015-0.045,0.488,0.046,1.203-0.412c0.339-0.234,0.717-0.632,0.882-1.219
						c0.157-0.577,0.046-1.32,0.068-2.127c-0.02-3.282-0.048-7.972-0.083-13.753c-0.016-5.817-0.035-12.727-0.056-20.397
						c-0.002-0.96-0.003-1.931-0.005-2.914c-0.001-0.491-0.001-0.986-0.002-1.483l-0.003-0.743c0-0.223-0.047-0.444-0.122-0.654
						c-0.306-0.862-1.196-1.417-2.175-1.316c-1.025,0.001-2.06,0.002-3.104,0.003c-4.177,0.002-8.502,0.004-12.931,0.005
						c-0.996-0.019-1.901,0.804-1.986,1.781c-0.024,1.038-0.007,2.165-0.013,3.232c-0.001,2.158-0.003,4.284-0.004,6.373
						c-0.005,4.177-0.01,8.207-0.015,12.047c-0.008,3.838-0.017,7.485-0.024,10.901c-0.005,1.706-0.01,3.355-0.015,4.94
						c-0.003,0.792-0.005,1.569-0.008,2.328c-0.001,0.38-0.003,0.756-0.004,1.127c-0.004,0.346,0.079,0.678,0.228,0.976
						c0.303,0.596,0.895,1.013,1.526,1.102c0.635,0.055,1.348,0.021,1.989,0.035c1.306,0.007,2.539,0.014,3.694,0.02
						c2.297,0.017,4.281,0.032,5.916,0.044c1.597,0.021,2.85,0.037,3.739,0.049c0.405,0.011,0.726,0.019,0.972,0.026
						C409.068,472.786,409.18,472.795,409.18,472.804c0,0.009-0.112,0.018-0.331,0.027c-0.247,0.007-0.568,0.015-0.972,0.026
						c-0.888,0.012-2.141,0.028-3.739,0.049c-1.635,0.012-3.619,0.027-5.916,0.044c-1.155,0.006-2.388,0.013-3.694,0.02
						c-0.665-0.01-1.302,0.036-2.041-0.021c-0.739-0.099-1.438-0.58-1.801-1.279c-0.18-0.348-0.281-0.747-0.279-1.146
						c-0.001-0.372-0.003-0.747-0.004-1.127c-0.003-0.76-0.005-1.536-0.008-2.328c-0.005-1.585-0.01-3.234-0.015-4.94
						c-0.008-3.416-0.016-7.064-0.024-10.901c-0.005-3.84-0.01-7.87-0.015-12.047c-0.001-2.089-0.003-4.215-0.004-6.373
						c0.006-1.091-0.015-2.139,0.014-3.286c0.106-1.235,1.247-2.272,2.503-2.247c4.429,0.002,8.754,0.004,12.931,0.005
						c1.044,0.001,2.079,0.002,3.104,0.003c1.078-0.124,2.295,0.574,2.642,1.65c0.094,0.262,0.15,0.539,0.15,0.816l0.001,0.751
						c-0.001,0.497-0.001,0.991-0.002,1.483c-0.002,0.983-0.003,1.954-0.005,2.914c-0.021,7.67-0.04,14.581-0.056,20.397
						c-0.035,5.781-0.063,10.471-0.083,13.753c-0.004,0.405-0.008,0.788-0.012,1.149c0.001,0.353-0.007,0.715-0.111,1.022
						c-0.194,0.624-0.608,1.032-0.973,1.262c-0.375,0.23-0.708,0.301-0.927,0.323C409.293,472.827,409.18,472.804,409.18,472.804z"
						/>
				</g>
			</g>
		</g>
		<g>
			<g>
				<path style="fill:#263238;" d="M411.136,440.285c0,0.144-4.532,0.26-10.122,0.26c-5.592,0-10.123-0.117-10.123-0.26
					s4.531-0.26,10.123-0.26C406.604,440.024,411.136,440.141,411.136,440.285z"/>
			</g>
		</g>
		<g>
			<g>
				<path style="fill:#263238;" d="M411.136,459.238c0,0.144-4.532,0.26-10.122,0.26c-5.592,0-10.123-0.117-10.123-0.26
					c0-0.144,4.531-0.26,10.123-0.26C406.604,458.977,411.136,459.094,411.136,459.238z"/>
			</g>
		</g>
		<g>
			<g>
				<path style="fill:#263238;" d="M348.264,440.285c0,0.144-4.532,0.26-10.122,0.26c-5.592,0-10.123-0.117-10.123-0.26
					s4.531-0.26,10.123-0.26C343.732,440.024,348.264,440.141,348.264,440.285z"/>
			</g>
		</g>
		<g>
			<g>
				<path style="fill:#263238;" d="M348.264,459.238c0,0.144-4.532,0.26-10.122,0.26c-5.592,0-10.123-0.117-10.123-0.26
					c0-0.144,4.531-0.26,10.123-0.26C343.732,458.977,348.264,459.094,348.264,459.238z"/>
			</g>
		</g>
	</g>
</g>
<g id="Character">
	<g>
		<g>
			<g>
				<path style="fill:#AE7461;" d="M272.041,198.301c0,0,25.49,5.815,28.144,24.514c2.88,20.295-2.861,61.157-2.146,67.952
					s0.811,12.355,0.811,12.355l51.763,27.7L340.071,344.8c0,0-45.966-1.818-58.126-10.759
					c-12.16-8.941-14.663-20.028-14.306-30.042c0.358-10.014-0.032-64.733-0.032-64.733L272.041,198.301z"/>
			</g>
			<g>
				<g>
					<path style="fill:#6F4439;" d="M289.657,235.102c0.125,0.09-1.831,2.906-3.932,6.563c-2.113,3.652-3.57,6.754-3.711,6.691
						c-0.063-0.028,0.221-0.841,0.784-2.114c0.562-1.272,1.415-2.997,2.475-4.838c1.061-1.839,2.127-3.441,2.947-4.565
						C289.039,235.715,289.601,235.062,289.657,235.102z"/>
				</g>
			</g>
			<g>
				<g>
					<path style="fill:#FF725E;" d="M426.034,327.674c0,11.664-6.885,21.119-15.377,21.119c-3.491,0-12.642-0.038-12.642-0.038
						c-3.698-3.857-2.735-14.212-2.735-21.081c0-6.355-1.945-17.124,1.289-20.995c0,0,10.223-0.124,14.089-0.124
						C419.149,306.554,426.034,316.01,426.034,327.674z"/>
				</g>
				<g style="opacity:0.3;">
					<path d="M426.034,327.674c0,11.664-6.885,21.119-15.377,21.119c-3.491,0-12.642-0.038-12.642-0.038
						c-3.698-3.857-2.735-14.212-2.735-21.081c0-6.355-1.945-17.124,1.289-20.995c0,0,10.223-0.124,14.089-0.124
						C419.149,306.554,426.034,316.01,426.034,327.674z"/>
				</g>
				<g>
					<ellipse style="fill:#FF725E;" cx="398.014" cy="327.635" rx="11.851" ry="21.119"/>
				</g>
			</g>
			<g>
				<path style="fill:#FF725E;" d="M404.991,334.941h-43.026c-1.875,0-3.395-1.52-3.395-3.395v-4.17c0-1.875,1.52-3.395,3.395-3.395
					h43.026c1.875,0,3.395,1.52,3.395,3.395v4.17C408.386,333.42,406.866,334.941,404.991,334.941z"/>
			</g>
			<g>
				<path style="fill:#AE7461;" d="M400.985,317.867c-1.137-2.002-3.876-5.7-3.876-5.7c-4.143-4.042-7.819-0.515-7.819-0.515
					c-2.042-1.683-4.52-1.068-6.215,0.819c-4.68-2.416-7.217,3.258-7.217,3.258c-9.025-0.516-7.033,8.252-7.033,8.252
					s2.544,0.21,2.565,0.418c0.344,3.371-4.437,9.878-4.437,9.878L356.702,344.8l16.509-0.263c2.881,1.023,5.525,0.777,7.659-2.212
					c4.544,3.341,6.683-0.802,6.683-0.802c4.277,2.874,6.784-1.47,6.784-1.47s4.303,2.062,5.643-6.153
					C400.468,330.904,402.123,319.869,400.985,317.867z"/>
			</g>
			<g>
				<g>
					<path style="fill:#6F4439;" d="M377.967,333.652c-0.072-0.034,0.401-1.13,1.064-2.935c0.661-1.803,1.49-4.332,2.124-7.188
						c0.153-0.707,0.253-1.4,0.188-2.051c-0.08-0.653-0.264-1.275-0.555-1.806c-0.585-1.07-1.496-1.787-2.28-2.312
						c-1.601-1.035-2.695-1.549-2.65-1.632c0.016-0.031,0.299,0.067,0.796,0.281c0.496,0.217,1.213,0.537,2.052,1.041
						c0.827,0.499,1.826,1.219,2.501,2.389c0.334,0.582,0.548,1.262,0.643,1.986c0.081,0.735-0.029,1.485-0.186,2.213
						c-0.643,2.896-1.536,5.43-2.291,7.213C378.618,332.637,378.025,333.681,377.967,333.652z"/>
				</g>
			</g>
			<g>
				<g>
					<path style="fill:#6F4439;" d="M386.848,331.529c-0.081-0.029,0.343-1.176,0.767-3.085c0.211-1.014,0.447-2.151,0.703-3.385
						c0.276-1.269,0.64-2.659,0.671-4.116c0.026-1.443-0.546-2.776-1.275-3.796c-0.734-1.036-1.604-1.821-2.322-2.482
						c-1.475-1.294-2.37-2.136-2.316-2.194c0.045-0.046,1.009,0.684,2.556,1.915c0.756,0.634,1.673,1.403,2.471,2.481
						c0.793,1.066,1.434,2.495,1.407,4.083c-0.035,1.556-0.425,2.958-0.725,4.22c-0.307,1.259-0.552,2.407-0.813,3.363
						c-0.258,0.957-0.531,1.714-0.74,2.225C387.023,331.269,386.88,331.541,386.848,331.529z"/>
				</g>
			</g>
			<g>
				<g>
					<path style="fill:#6F4439;" d="M394.362,329.647c-0.069-0.021,0.22-1.196,0.742-3.078c0.279-0.988,0.592-2.095,0.932-3.296
						c0.325-1.227,0.618-2.624,0.321-4.027c-0.292-1.405-1.064-2.606-1.902-3.538c-0.845-0.937-1.775-1.627-2.571-2.175
						c-1.613-1.074-2.676-1.666-2.633-1.741c0.017-0.031,0.299,0.083,0.792,0.32c0.492,0.24,1.201,0.597,2.041,1.112
						c0.835,0.518,1.816,1.193,2.724,2.159c0.897,0.958,1.738,2.225,2.058,3.757c0.324,1.543-0.014,3.022-0.368,4.261
						c-0.372,1.247-0.739,2.344-1.042,3.275C394.844,328.531,394.43,329.668,394.362,329.647z"/>
				</g>
			</g>
			<g>
				<g>
					<path style="fill:#6F4439;" d="M298.998,303.168c0.085,0.15-3.24,1.646-6.415,4.715c-3.208,3.037-4.85,6.29-4.996,6.199
						c-0.055-0.027,0.281-0.872,1.04-2.127c0.755-1.254,1.976-2.895,3.596-4.448c1.624-1.549,3.317-2.695,4.603-3.394
						C298.115,303.41,298.974,303.112,298.998,303.168z"/>
				</g>
			</g>
			<g>
				<g>
					<path style="fill:#FF725E;" d="M368.09,329.244c0,11.664-6.885,21.119-15.377,21.119c-3.491,0-12.642-0.038-12.642-0.038
						c-3.698-3.857-2.735-14.212-2.735-21.081c0-6.355-1.945-17.124,1.289-20.995c0,0,10.223-0.124,14.089-0.124
						C361.206,308.125,368.09,317.58,368.09,329.244z"/>
				</g>
				<g style="opacity:0.3;">
					<path d="M368.09,329.244c0,11.664-6.885,21.119-15.377,21.119c-3.491,0-12.642-0.038-12.642-0.038
						c-3.698-3.857-2.735-14.212-2.735-21.081c0-6.355-1.945-17.124,1.289-20.995c0,0,10.223-0.124,14.089-0.124
						C361.206,308.125,368.09,317.58,368.09,329.244z"/>
				</g>
				<g>
					<ellipse style="fill:#FF725E;" cx="340.071" cy="329.206" rx="11.851" ry="21.119"/>
				</g>
			</g>
			<g>
				<g>
					<path style="fill:#263238;" d="M350.189,329.206c-0.009,0-0.02-0.081-0.033-0.24c-0.012-0.189-0.027-0.42-0.045-0.702
						c-0.016-0.618-0.098-1.526-0.221-2.691c-0.088-0.583-0.185-1.227-0.291-1.927c-0.164-0.693-0.273-1.462-0.515-2.258
						c-0.414-1.606-1.037-3.407-2.039-5.233c-0.522-0.897-1.104-1.825-1.868-2.656c-0.728-0.861-1.662-1.605-2.734-2.128
						c-1.072-0.521-2.338-0.748-3.587-0.511c-1.251,0.235-2.424,0.928-3.415,1.844c-2.006,1.85-3.352,4.51-4.251,7.35
						c-0.9,2.857-1.308,5.972-1.336,9.15c0.027,3.18,0.436,6.295,1.335,9.153c0.899,2.84,2.246,5.501,4.252,7.351
						c0.991,0.917,2.164,1.609,3.415,1.844c1.25,0.237,2.516,0.01,3.588-0.511c1.073-0.524,2.006-1.268,2.734-2.129
						c0.764-0.832,1.347-1.759,1.868-2.657c1.002-1.826,1.625-3.628,2.039-5.233c0.242-0.796,0.351-1.565,0.515-2.258
						c0.106-0.701,0.203-1.344,0.291-1.927c0.123-1.165,0.205-2.073,0.221-2.691c0.018-0.283,0.033-0.513,0.045-0.702
						C350.169,329.287,350.18,329.206,350.189,329.206s0.016,0.081,0.02,0.24c0.002,0.19,0.004,0.421,0.006,0.705
						c0.018,0.621-0.032,1.534-0.125,2.71c-0.062,0.586-0.154,1.235-0.248,1.947c-0.151,0.702-0.247,1.48-0.477,2.288
						c-0.392,1.63-0.996,3.463-1.998,5.337c-0.522,0.923-1.109,1.878-1.891,2.747c-0.744,0.895-1.711,1.686-2.848,2.251
						c-1.135,0.564-2.506,0.822-3.859,0.572c-1.356-0.246-2.61-0.984-3.653-1.939c-2.111-1.932-3.49-4.658-4.416-7.553
						c-0.924-2.914-1.342-6.078-1.369-9.306c0.028-3.228,0.446-6.391,1.37-9.304c0.926-2.895,2.305-5.62,4.415-7.552
						c1.043-0.955,2.297-1.693,3.653-1.939c1.353-0.25,2.724,0.008,3.859,0.571c1.137,0.565,2.104,1.356,2.849,2.251
						c0.782,0.868,1.368,1.824,1.891,2.746c1.002,1.875,1.606,3.708,1.998,5.337c0.231,0.808,0.327,1.586,0.477,2.288
						c0.094,0.712,0.186,1.362,0.248,1.948c0.093,1.176,0.142,2.089,0.125,2.71c-0.003,0.284-0.005,0.515-0.006,0.705
						C350.205,329.124,350.198,329.206,350.189,329.206z"/>
				</g>
			</g>
			<g>
				<path style="fill:#263238;" d="M339.722,331.372l-0.714,0.051l0.093,1.281l-0.988,0.071l-0.093-1.281l-2.358,0.169l-0.068-0.951
					l1.786-4.02l1.064-0.076l-1.65,3.81l1.175-0.085l-0.081-1.143l0.957-0.068l0.082,1.143l0.713-0.051L339.722,331.372z"/>
				<path style="fill:#263238;" d="M341.635,330.673l-0.423,0.68l0.086,1.194l-0.976,0.069l-0.464-6.471l0.976-0.069l0.263,3.663
					l1.291-1.986l1.163-0.084l-1.258,2.09l1.72,2.593l-1.182,0.085L341.635,330.673z"/>
			</g>
		</g>
		<g>
			<g>
				<path style="fill:#263238;" d="M233.618,71.738c4.859-3.806,5.17-11.572,1.857-16.78c-3.313-5.208-9.316-8.146-15.338-9.499
					c-9.319-2.093-20.001-0.582-26.742,6.184c-6.741,6.766-7.576,19.384-0.189,25.44c-4.261,0.333-8.76,0.75-12.228,3.246
					c-3.469,2.497-5.254,7.85-2.53,11.143c3.103,3.752,9.063,2.345,13.613,0.61c-2.991,1.892-3.458,6.461-1.499,9.408
					c1.959,2.947,5.692,4.337,9.231,4.295c3.539-0.042,6.942-1.309,10.187-2.721"/>
			</g>
			<g>
				<g>
					<g>
						<path style="fill:#FF725E;" d="M218.744,73.19c1.757-2.105,3.557-4.24,5.872-5.711c2.314-1.47,5.264-2.198,7.839-1.254
							c1.212,0.444,2.367,1.366,2.588,2.637c0.222,1.271-0.942,2.728-2.194,2.414l-0.308,0.187
							c-3.239,2.033-6.517,4.001-9.834,5.904c-0.835,0.479-1.699,0.963-2.654,1.091c-0.955,0.128-2.032-0.182-2.545-0.997
							C216.66,76.115,217.724,74.411,218.744,73.19z"/>
					</g>
				</g>
				<g>
					<g>
						<path style="fill:#263238;" d="M211.881,81.573c11.303-9.941,25.026-14.472,39.917-12.265
							c8.401,1.246,11.58,3.559,17.345,6.184c5.764,2.624,10.673,6.76,13.429,12.464c3.273,6.774,5.741,14.162,5.331,21.674
							c-0.422,7.716-0.851,15.484-2.679,22.992c-1.828,7.508-5.158,14.824-10.654,20.256l-19.9,0.165
							c-10.744-1.401-29.118,9.208-39.123,5.052c-10.006-4.157-16.504-22.802-17.858-33.999
							C195.88,109.151,200.577,91.514,211.881,81.573z"/>
					</g>
				</g>
				<g>
					<g>
						<g>
							<g>
								<g>
									<g>
										<g>
											<g>
												<path style="fill:#AE7461;" d="M249.07,187.394c0.992-6.81,2.169-15.357,2.165-15.326c0,0,16.061,0.868,23.759-18.629
													c3.828-9.696,6.983-26.288,9.127-39.946c1.929-12.294-5.764-30.741-20.915-33.299l-6.608-1.896l-27.483,5.991
													c-3.756-0.427-7.215,2.091-7.961,5.798l-15.662,91.469l11.966,27.604l29.626-11.476L249.07,187.394z"/>
											</g>
										</g>
									</g>
								</g>
							</g>
						</g>
					</g>
					<g>
						<g>
							<g>
								<path style="fill:#6F4439;" d="M245.451,143.698c0.316-1.042,1.064-1.887,1.927-2.409c1.725-1.045,3.953-0.806,5.386,0.577
									c1.433,1.383,1.981,3.824,1.324,5.9l0,0c-1.113,1.098-2.641,1.71-4.2,1.59c-0.243-0.019-0.484-0.05-0.724-0.096
									c-1.161-0.223-2.281-0.813-3.029-1.819C245.387,146.436,245.061,144.984,245.451,143.698z"/>
							</g>
						</g>
					</g>
					<g>
						<g>
							<g>
								<g>
									<g>
										<g>
											<g>
												<g>
													<g>
														<g>
															<g>
																<g>
																	<g>
																		<g>
																			<g>
																				<g>
																					<g>
																						<g>
																							<g>
																								<g>
																									<g>
																										<path style="fill:#263238;" d="M275.31,128.654c-0.256,1.38-1.635,2.301-3.08,2.06
																											c-1.443-0.24-2.408-1.55-2.153-2.93c0.256-1.379,1.635-2.302,3.077-2.062
																											C274.601,125.962,275.566,127.275,275.31,128.654z"/>
																									</g>
																								</g>
																							</g>
																						</g>
																					</g>
																				</g>
																			</g>
																		</g>
																	</g>
																</g>
															</g>
														</g>
													</g>
												</g>
											</g>
										</g>
									</g>
								</g>
								<g>
									<g>
										<g>
											<g>
												<g>
													<g>
														<g>
															<g>
																<g>
																	<g>
																		<g>
																			<g>
																				<g>
																					<g>
																						<g>
																							<g>
																								<g>
																									<g>
																										<g>
																											<path style="fill:#263238;" d="M278.374,119.549c-0.396,0.267-2.037-1.622-4.828-2.235
																												c-2.779-0.652-5.144,0.329-5.371-0.08c-0.115-0.184,0.348-0.721,1.383-1.173
																												c1.021-0.451,2.657-0.747,4.393-0.354c1.735,0.396,3.055,1.36,3.749,2.201
																												C278.41,118.757,278.565,119.433,278.374,119.549z"/>
																										</g>
																									</g>
																								</g>
																							</g>
																						</g>
																					</g>
																				</g>
																			</g>
																		</g>
																	</g>
																</g>
															</g>
														</g>
													</g>
												</g>
											</g>
										</g>
									</g>
								</g>
								<g>
									<g>
										<g>
											<g>
												<g>
													<g>
														<g>
															<g>
																<g>
																	<g>
																		<g>
																			<g>
																				<g>
																					<g>
																						<g>
																							<g>
																								<g>
																									<g>
																										<path style="fill:#263238;" d="M256.639,138.635c0.022-0.161,1.822-0.076,4.711,0.189
																											c0.728,0.084,1.434,0.093,1.662-0.366c0.282-0.478,0.155-1.311-0.006-2.216
																											c-0.287-1.872-0.586-3.835-0.902-5.891c-1.209-8.371-1.917-15.19-1.58-15.236
																											c0.338-0.046,1.593,6.702,2.803,15.073c0.281,2.06,0.551,4.025,0.806,5.903
																											c0.09,0.87,0.349,1.891-0.251,2.878c-0.31,0.49-0.918,0.759-1.402,0.781
																											c-0.488,0.038-0.889-0.044-1.247-0.101C258.371,139.173,256.615,138.796,256.639,138.635z"/>
																									</g>
																								</g>
																							</g>
																						</g>
																					</g>
																				</g>
																			</g>
																		</g>
																	</g>
																</g>
															</g>
														</g>
													</g>
												</g>
											</g>
										</g>
									</g>
								</g>
								<g>
									<g>
										<g>
											<g>
												<g>
													<g>
														<g>
															<g>
																<g>
																	<g>
																		<g>
																			<g>
																				<g>
																					<g>
																						<g>
																							<g>
																								<g>
																									<path style="fill:#6F4439;" d="M251.235,172.068c0,0-13.791-2.143-25.463-13.231
																										c0,0,4.099,15.61,24.747,18.212L251.235,172.068z"/>
																								</g>
																							</g>
																						</g>
																					</g>
																				</g>
																			</g>
																		</g>
																	</g>
																</g>
															</g>
														</g>
													</g>
												</g>
											</g>
										</g>
									</g>
								</g>
								<g>
									<g>
										<g>
											<g>
												<g>
													<g>
														<g>
															<g>
																<g>
																	<g>
																		<g>
																			<g>
																				<g>
																					<g>
																						<g>
																							<g>
																								<g>
																									<g>
																										<path style="fill:#263238;" d="M248.003,138.742c0.459,0.074-0.207,3.103,1.907,5.827
																											c2.107,2.73,5.41,3.107,5.34,3.535c0,0.2-0.849,0.429-2.219,0.163c-1.346-0.251-3.202-1.114-4.496-2.78
																											c-1.289-1.669-1.578-3.578-1.405-4.843C247.295,139.353,247.799,138.678,248.003,138.742z"/>
																									</g>
																								</g>
																							</g>
																						</g>
																					</g>
																				</g>
																			</g>
																		</g>
																	</g>
																</g>
															</g>
														</g>
													</g>
												</g>
											</g>
										</g>
									</g>
								</g>
								<g>
									<g>
										<g>
											<g>
												<g>
													<g>
														<g>
															<g>
																<g>
																	<g>
																		<g>
																			<g>
																				<g>
																					<g>
																						<g>
																							<g>
																								<g>
																									<g>
																										<g>
																											<g>
																												<path style="fill:#263238;" d="M279.044,113.875c-0.62,0.577-2.655-0.353-5.196-0.7
																													c-2.53-0.428-4.755-0.149-5.167-0.884c-0.178-0.354,0.242-0.957,1.259-1.45
																													c1.004-0.493,2.617-0.797,4.361-0.532c1.742,0.268,3.186,1.038,3.989,1.808
																													C279.107,112.891,279.321,113.59,279.044,113.875z"/>
																											</g>
																										</g>
																									</g>
																								</g>
																							</g>
																						</g>
																					</g>
																				</g>
																			</g>
																		</g>
																	</g>
																</g>
															</g>
														</g>
													</g>
												</g>
											</g>
										</g>
									</g>
								</g>
								<g>
									<g>
										<g>
											<g>
												<g>
													<g>
														<g>
															<g>
																<g>
																	<g>
																		<g>
																			<g>
																				<g>
																					<g>
																						<g>
																							<g>
																								<g>
																									<g>
																										<path style="fill:#263238;" d="M243.659,122.512c-0.301,1.371,0.61,2.755,2.036,3.096
																											c1.422,0.34,2.822-0.491,3.123-1.861c0.301-1.37-0.611-2.757-2.032-3.097
																											C245.361,120.308,243.961,121.142,243.659,122.512z"/>
																									</g>
																								</g>
																							</g>
																						</g>
																					</g>
																				</g>
																			</g>
																		</g>
																	</g>
																</g>
															</g>
														</g>
													</g>
												</g>
											</g>
										</g>
									</g>
								</g>
								<g>
									<g>
										<g>
											<g>
												<g>
													<g>
														<g>
															<g>
																<g>
																	<g>
																		<g>
																			<g>
																				<g>
																					<g>
																						<g>
																							<g>
																								<g>
																									<g>
																										<g>
																											<path style="fill:#263238;" d="M240.463,112.167c0.261,0.4,2.508-0.701,5.317-0.18
																												c2.813,0.481,4.611,2.305,4.979,2.017c0.178-0.125-0.04-0.8-0.817-1.618
																												c-0.765-0.813-2.157-1.722-3.909-2.036c-1.753-0.311-3.343,0.064-4.31,0.568
																												C240.737,111.423,240.331,111.985,240.463,112.167z"/>
																										</g>
																									</g>
																								</g>
																							</g>
																						</g>
																					</g>
																				</g>
																			</g>
																		</g>
																	</g>
																</g>
															</g>
														</g>
													</g>
												</g>
											</g>
										</g>
									</g>
								</g>
								<g>
									<g>
										<g>
											<g>
												<g>
													<g>
														<g>
															<g>
																<g>
																	<g>
																		<g>
																			<g>
																				<g>
																					<g>
																						<g>
																							<g>
																								<g>
																									<g>
																										<g>
																											<g>
																												<path style="fill:#263238;" d="M243.645,103.428c0.437,0.739,2.727,0.475,5.339,0.921
																													c2.626,0.364,4.737,1.311,5.367,0.736c0.283-0.283,0.051-0.986-0.803-1.767
																													c-0.84-0.776-2.34-1.559-4.141-1.839c-1.801-0.277-3.459,0.017-4.485,0.505
																													C243.881,102.47,243.458,103.072,243.645,103.428z"/>
																											</g>
																										</g>
																									</g>
																								</g>
																							</g>
																						</g>
																					</g>
																				</g>
																			</g>
																		</g>
																	</g>
																</g>
															</g>
														</g>
													</g>
												</g>
											</g>
										</g>
									</g>
								</g>
							</g>
						</g>
					</g>
					<g>
						<g>
							<g>
								<g>
									<g>
										<g>
											<g>
												<g>
													<g>
														<g>
															<g>
																<g>
																	<g>
																		<g>
																			<g>
																				<g>
																					<g>
																						<g>
																							<path style="fill:#AE7461;" d="M218.995,124.938c0.331-1.506-0.621-5.441-2.056-6.003
																								c-3.832-1.5-11.057-2.771-13.362,7.295c-3.151,13.759,11.313,14.085,11.428,13.696
																								C215.094,139.622,217.853,130.138,218.995,124.938z"/>
																						</g>
																					</g>
																				</g>
																			</g>
																		</g>
																	</g>
																</g>
															</g>
														</g>
													</g>
												</g>
											</g>
										</g>
									</g>
								</g>
							</g>
						</g>
						<g>
							<g>
								<g>
									<g>
										<g>
											<g>
												<g>
													<g>
														<g>
															<g>
																<g>
																	<g>
																		<g>
																			<g>
																				<g>
																					<g>
																						<g>
																							<g>
																								<path style="fill:#6F4439;" d="M212.36,134.031c-0.05-0.058-0.278,0.113-0.725,0.206
																									c-0.437,0.09-1.145,0.06-1.801-0.374c-1.331-0.866-2.026-3.454-1.525-5.95
																									c0.252-1.261,0.787-2.393,1.456-3.279c0.651-0.91,1.463-1.464,2.225-1.426
																									c0.766-0.002,1.184,0.555,1.264,0.98c0.096,0.428-0.055,0.683,0.013,0.722
																									c0.03,0.044,0.348-0.162,0.367-0.756c0.006-0.287-0.081-0.648-0.344-0.987
																									c-0.268-0.344-0.722-0.592-1.245-0.654c-1.078-0.169-2.256,0.588-2.992,1.56
																									c-0.795,0.964-1.426,2.23-1.709,3.645c-0.547,2.793,0.278,5.712,2.136,6.743
																									c0.91,0.473,1.784,0.367,2.276,0.138C212.259,134.358,212.402,134.066,212.36,134.031z"/>
																							</g>
																						</g>
																					</g>
																				</g>
																			</g>
																		</g>
																	</g>
																</g>
															</g>
														</g>
													</g>
												</g>
											</g>
										</g>
									</g>
								</g>
							</g>
						</g>
					</g>
				</g>
				<g>
					<g>
						<g>
							<path style="fill:#263238;" d="M216.366,118.882l2.927,4.247c17.663-12.079,53.508-43.706,51.484-41.803
								c0,0-9.738-6.023-21.398-5.965c-11.66,0.058-34.107,2.181-35.987,15.611C211.512,104.401,216.366,118.882,216.366,118.882z"
								/>
						</g>
					</g>
				</g>
				<g>
					<g>
						<path style="fill:#455A64;" d="M196.675,112.476c-0.022-0.011,0.097-0.275,0.346-0.769c0.252-0.492,0.674-1.194,1.31-2.035
							c1.269-1.671,3.527-3.842,6.889-5.577c3.327-1.803,7.726-2.996,12.626-3.694c4.9-0.747,10.336-1.056,15.846-2.416
							c5.53-1.271,10.6-3.25,15.005-5.423c4.396-2.205,8.125-4.629,11.093-6.873c2.969-2.247,5.194-4.289,6.704-5.726
							c0.698-0.688,1.265-1.246,1.711-1.686c0.395-0.383,0.611-0.576,0.63-0.56c0.019,0.017-0.162,0.243-0.523,0.659
							c-0.366,0.411-0.891,1.034-1.619,1.786c-1.455,1.504-3.641,3.616-6.592,5.932c-2.95,2.313-6.683,4.803-11.105,7.062
							c-4.43,2.227-9.547,4.247-15.138,5.532c-5.582,1.375-11.052,1.665-15.916,2.371c-4.873,0.659-9.193,1.779-12.488,3.49
							c-3.328,1.645-5.586,3.709-6.902,5.298C197.237,111.454,196.743,112.515,196.675,112.476z"/>
					</g>
				</g>
				<g>
					<g>
						<path style="fill:#455A64;" d="M200.359,115.332c0,0,0.048-1.162,1.041-2.949c0.96-1.778,3.028-4.067,6.304-5.682
							c3.261-1.688,7.625-2.343,12.351-2.631c4.74-0.254,9.915-0.724,15.17-2.193c5.244-1.452,10.067-3.463,14.161-5.81
							c4.11-2.322,7.538-4.871,10.24-7.204c2.729-2.313,4.659-4.48,6.027-5.94c0.609-0.712,1.105-1.291,1.5-1.752
							c0.349-0.396,0.543-0.597,0.562-0.582c0.02,0.015-0.135,0.246-0.448,0.672c-0.368,0.485-0.831,1.095-1.4,1.844
							c-1.309,1.523-3.195,3.759-5.904,6.141c-2.682,2.402-6.112,5.02-10.249,7.399c-4.12,2.404-8.993,4.459-14.301,5.928
							c-5.308,1.486-10.595,1.945-15.316,2.16c-4.712,0.25-8.978,0.846-12.17,2.426c-3.217,1.514-5.276,3.676-6.285,5.365
							C200.6,114.222,200.451,115.364,200.359,115.332z"/>
					</g>
				</g>
			</g>
		</g>
		<g>
			<g>
				<path style="fill:#AE7461;" d="M161.929,241.926c0.558,1.08,0.558,14.402,3.079,29.349c2.521,14.947,15.34,45.458,15.34,45.458
					l-2.649,20.711l111.361,12.719l-13.401-35.855l1.47-33.768c0,0,8.522-9.444,4.92-34.653
					c-3.601-25.209-8.814-46.854-8.814-46.854l-8.953-3.82l-11.438-4.241l-42.733-13.379l-23.396-2.77l-22.427,46.215
					L161.929,241.926z"/>
			</g>
			<g>
				<path style="fill:#263238;" d="M169.034,287.327c0,0,8.198-5.8,27.899-6.228c19.701-0.428,77.741,9.336,77.741,9.336
					l2.072-7.634c0,0,14.051-21.394,3.815-46.07c-10.913-26.308-7.181-38.29-7.181-38.29l-9.098-3.228
					c0,0-9.117,17.964-16.888,22.316c-8.768,4.91-24.898,4.681-39.112-13.949c-10-13.106-10.169-27.83-10.169-27.83l-10.694-0.927
					c0,0-2.478,27.686-7.832,40.535c-5.354,12.848-18.889,39.725-18.889,39.725S166.403,283.705,169.034,287.327z"/>
			</g>
			<g>
				<g>
					<path style="fill:#263238;" d="M176.532,337.485c-0.72,1.801-12.244,32.772-13.685,57.981
						c-1.441,25.209-1.801,56.722,3.601,77.338h63.743c0,0,5.311-45.57,7.112-47.73c1.801-2.161,3.601-2.842,4.322,5.421
						c0.72,8.264-1.35,42.309-1.35,42.309h61.958c0,0,1.785-56.668,0.345-70.605c-0.913-8.829-3.849-23.338-5.878-32.787
						c-1.269-5.908-3.009-11.7-5.213-17.326l-7.222-18.434L176.532,337.485z"/>
				</g>
				<g>
					<g>
						<path style="fill:#455A64;" d="M289.06,345.895c0,0.009-0.102,0.019-0.302,0.029c-0.228,0.008-0.52,0.019-0.886,0.033
							c-0.815,0.018-1.955,0.043-3.406,0.075c-2.958,0.039-7.237,0.16-12.522,0.346c-10.572,0.364-25.157,1.256-41.26,2.383
							c-16.109,1.127-30.71,1.962-41.291,2.231c-5.29,0.139-9.572,0.203-12.531,0.18c-1.451-0.01-2.592-0.017-3.407-0.022
							c-0.366-0.008-0.657-0.014-0.886-0.019c-0.2-0.007-0.302-0.015-0.302-0.024s0.102-0.019,0.302-0.029
							c0.229-0.008,0.52-0.019,0.886-0.033c0.815-0.018,1.955-0.043,3.406-0.075c2.957-0.039,7.236-0.16,12.521-0.346
							c10.572-0.364,25.159-1.256,41.267-2.383c16.103-1.127,30.703-1.961,41.284-2.231c5.29-0.139,9.572-0.203,12.532-0.18
							c1.451,0.01,2.592,0.017,3.408,0.022c0.366,0.008,0.658,0.014,0.886,0.019C288.958,345.878,289.06,345.886,289.06,345.895z"/>
					</g>
				</g>
				<g>
					<g>
						<path style="fill:#FFFFFF;" d="M183.216,351.106c0.009,0.002-0.007,0.109-0.045,0.315c-0.046,0.233-0.106,0.534-0.181,0.912
							c-0.178,0.833-0.428,2.004-0.746,3.496c-0.338,1.514-0.74,3.37-1.143,5.537c-0.411,2.165-0.936,4.62-1.373,7.359
							c-0.234,1.368-0.478,2.8-0.733,4.292c-0.253,1.492-0.453,3.055-0.695,4.668c-0.507,3.222-0.891,6.686-1.33,10.326
							c-0.774,7.292-1.4,15.333-1.661,23.792c-0.221,8.462-0.052,16.528,0.327,23.852c0.246,3.659,0.441,7.138,0.788,10.382
							c0.161,1.622,0.28,3.194,0.46,4.697c0.183,1.502,0.359,2.944,0.527,4.321c0.302,2.758,0.723,5.232,1.037,7.413
							c0.304,2.183,0.629,4.053,0.908,5.579c0.258,1.502,0.461,2.682,0.605,3.522c0.06,0.381,0.108,0.684,0.145,0.919
							c0.03,0.208,0.041,0.315,0.032,0.317c-0.009,0.002-0.037-0.102-0.084-0.306c-0.05-0.233-0.114-0.532-0.195-0.909
							c-0.167-0.836-0.402-2.01-0.701-3.506c-0.31-1.522-0.665-3.389-0.996-5.57c-0.342-2.179-0.789-4.653-1.115-7.412
							c-0.179-1.378-0.366-2.821-0.561-4.324c-0.19-1.504-0.319-3.077-0.49-4.701c-0.366-3.247-0.577-6.731-0.837-10.396
							c-0.406-7.335-0.59-15.416-0.368-23.894c0.261-8.474,0.902-16.529,1.704-23.83c0.452-3.645,0.854-7.112,1.379-10.336
							c0.252-1.613,0.463-3.177,0.726-4.669c0.267-1.492,0.523-2.924,0.767-4.291c0.461-2.739,1.011-5.191,1.451-7.353
							c0.431-2.164,0.861-4.014,1.23-5.523c0.359-1.483,0.641-2.647,0.842-3.475c0.096-0.373,0.172-0.67,0.232-0.901
							C183.175,351.206,183.207,351.104,183.216,351.106z"/>
					</g>
				</g>
				<g>
					<g>
						<path style="fill:#FFFFFF;" d="M177.699,351.736c0.009,0.002-0.006,0.108-0.044,0.313c-0.046,0.233-0.105,0.532-0.179,0.908
							c-0.176,0.829-0.424,1.995-0.739,3.478c-0.335,1.507-0.734,3.353-1.128,5.51c-0.402,2.155-0.923,4.597-1.343,7.325
							c-0.227,1.362-0.464,2.787-0.711,4.272c-0.247,1.485-0.434,3.042-0.667,4.647c-0.487,3.208-0.846,6.656-1.257,10.28
							c-0.718,7.258-1.269,15.263-1.449,23.679c-0.139,8.42,0.108,16.441,0.55,23.723c0.273,3.637,0.501,7.097,0.866,10.321
							c0.172,1.613,0.3,3.175,0.491,4.669c0.19,1.493,0.373,2.927,0.548,4.296c0.317,2.742,0.745,5.201,1.065,7.37
							c0.312,2.17,0.64,4.03,0.918,5.548c0.259,1.494,0.462,2.668,0.606,3.503c0.06,0.379,0.108,0.68,0.145,0.914
							c0.03,0.206,0.041,0.313,0.032,0.315c-0.009,0.002-0.037-0.101-0.084-0.305c-0.05-0.231-0.115-0.529-0.196-0.904
							c-0.167-0.832-0.403-1.999-0.702-3.487c-0.308-1.514-0.666-3.37-1.006-5.538c-0.347-2.167-0.801-4.625-1.142-7.367
							c-0.186-1.37-0.38-2.804-0.582-4.297c-0.202-1.495-0.34-3.058-0.521-4.672c-0.384-3.227-0.629-6.691-0.915-10.334
							c-0.469-7.292-0.731-15.328-0.592-23.764c0.181-8.432,0.747-16.451,1.493-23.719c0.424-3.629,0.8-7.08,1.306-10.29
							c0.243-1.606,0.44-3.163,0.698-4.649c0.259-1.485,0.507-2.91,0.745-4.272c0.444-2.727,0.992-5.167,1.421-7.319
							c0.421-2.154,0.849-3.995,1.215-5.496c0.356-1.475,0.635-2.633,0.834-3.458c0.095-0.371,0.171-0.667,0.23-0.896
							C177.658,351.836,177.69,351.734,177.699,351.736z"/>
					</g>
				</g>
			</g>
			<g>
				<g>
					<path style="fill:#6F4439;" d="M284.295,334.941c-0.033,0.013-0.303-0.546-0.766-1.573c-0.486-1.108-1.133-2.583-1.919-4.374
						c-1.602-3.707-3.789-8.853-6.191-14.585l-0.018-0.043l-0.002-0.047c-0.01-0.241-0.021-0.5-0.031-0.761
						c-0.264-6.383-0.473-12.162-0.599-16.346c-0.05-2.029-0.091-3.702-0.122-4.956c-0.003-0.534-0.005-0.979-0.007-1.348
						c0.004-0.309,0.015-0.471,0.033-0.472c0.018-0.001,0.042,0.16,0.072,0.467c0.029,0.368,0.063,0.811,0.105,1.344
						c0.073,1.252,0.17,2.923,0.287,4.949c0.22,4.18,0.487,9.957,0.751,16.34c0.011,0.261,0.021,0.52,0.031,0.761l-0.02-0.09
						c2.397,5.734,4.529,10.903,6.045,14.646c0.724,1.817,1.321,3.313,1.768,4.437C284.119,334.341,284.328,334.927,284.295,334.941
						z"/>
				</g>
			</g>
			<g>
				<g>
					<path style="fill:#FFFFFF;" d="M272.775,242.561c-0.028,0.141-4.233-0.568-9.391-1.584c-5.16-1.016-9.32-1.954-9.292-2.095
						c0.028-0.141,4.232,0.568,9.392,1.585C268.643,241.482,272.803,242.42,272.775,242.561z"/>
				</g>
			</g>
		</g>
		<g>
			<g>
				
					<ellipse transform="matrix(0.9257 -0.3783 0.3783 0.9257 -151.09 73.9666)" style="fill:#FF725E;" cx="112.717" cy="421.543" rx="18.978" ry="18.979"/>
			</g>
			<g style="opacity:0.3;">
				
					<ellipse transform="matrix(0.9257 -0.3783 0.3783 0.9257 -151.09 73.9666)" cx="112.717" cy="421.543" rx="18.978" ry="18.979"/>
			</g>
			<g>
				
					<ellipse transform="matrix(0.9173 -0.3981 0.3981 0.9173 -158.0053 82.1276)" style="fill:#FF725E;" cx="118.762" cy="421.543" rx="18.978" ry="18.979"/>
			</g>
			<g>
				<path style="fill:#AE7461;" d="M108.131,386.257c0,0.713-0.018,13.109-2.156,20.059c-2.138,6.95-3.208,14.078-2.317,16.751
					c0.891,2.673,10.87,12.474,13.187,13.365c2.317,0.891,22.632-0.891,22.632-0.891l6.95-23.701c0,0-8.019-11.405-11.405-17.464
					c-3.386-6.059-6.447-13.112-6.075-17.337C129.319,372.813,108.131,386.257,108.131,386.257z"/>
			</g>
			<g>
				<circle style="fill:#FF725E;" cx="135.315" cy="423.359" r="18.978"/>
			</g>
			<g>
				<path style="fill:#AE7461;" d="M176.891,175.054c-5.615,0.719-11.05,2.586-15.795,5.673
					c-7.732,5.031-17.076,14.693-20.42,32.789c-6.08,32.903-9.299,61.872-12.875,69.382c-3.576,7.51-11.087,21.816-11.802,36.837
					c-0.715,15.021-7.868,66.521-7.868,66.521h18.597c0,0,17.167-53.289,23.604-70.455c6.438-17.167,4.763-17.588,9.055-33.681
					c4.292-16.094,13.225-47.047,13.225-47.047l10.722-32.686l3.38-27.564L176.891,175.054z"/>
			</g>
			<g>
				<g>
					<path style="fill:#6F4439;" d="M173.587,203.126c0.063-0.023,0.491,0.9,1.06,2.445c0.566,1.544,1.255,3.72,1.764,6.186
						c0.505,2.468,0.728,4.74,0.817,6.382c0.085,1.644,0.056,2.661-0.011,2.664c-0.077,0.004-0.177-1.007-0.356-2.634
						c-0.182-1.626-0.461-3.868-0.96-6.308c-0.503-2.438-1.129-4.608-1.603-6.175C173.821,204.121,173.515,203.152,173.587,203.126z
						"/>
				</g>
			</g>
			<g style="opacity:0.3;">
				<circle cx="135.315" cy="423.359" r="18.978"/>
			</g>
			<g>
				<circle style="fill:#FF725E;" cx="141.994" cy="423.359" r="18.979"/>
			</g>
			<g>
				<path style="fill:#263238;" d="M142.64,425.321l-0.878,0.063l0.101,1.411l-1.217,0.088l-0.101-1.411l-2.903,0.208l-0.075-1.047
					l2.235-4.447l1.309-0.094l-2.066,4.212l1.448-0.104l-0.09-1.258l1.178-0.085l0.09,1.258l0.878-0.063L142.64,425.321z"/>
				<path style="fill:#263238;" d="M144.996,424.534l-0.526,0.752l0.094,1.315l-1.201,0.086l-0.511-7.126l1.201-0.086l0.289,4.033
					l1.608-2.199l1.433-0.103l-1.568,2.313l2.093,2.842l-1.456,0.105L144.996,424.534z"/>
			</g>
			<g>
				<g>
					<path style="fill:#263238;" d="M157.889,423.359c-0.086,0.008,0.02-1.418-0.596-3.856c-0.288-1.221-0.868-2.661-1.776-4.186
						c-0.915-1.518-2.231-3.103-4.018-4.446c-1.781-1.33-4.025-2.46-6.612-2.913c-2.57-0.437-5.468-0.353-8.227,0.698
						c-1.388,0.483-2.727,1.213-3.957,2.134c-0.636,0.437-1.191,0.984-1.773,1.51c-0.526,0.583-1.078,1.153-1.531,1.814
						c-1.924,2.56-3.008,5.851-3.04,9.242c0.03,3.392,1.115,6.684,3.039,9.245c0.453,0.661,1.006,1.232,1.531,1.815
						c0.582,0.526,1.138,1.073,1.774,1.51c1.23,0.922,2.569,1.652,3.958,2.135c2.759,1.052,5.658,1.135,8.227,0.698
						c2.587-0.453,4.831-1.583,6.612-2.914c1.786-1.343,3.102-2.927,4.017-4.446c0.908-1.525,1.488-2.965,1.776-4.186
						C157.909,424.777,157.803,423.351,157.889,423.359c0.009,0,0.014,0.087,0.014,0.258c-0.003,0.201-0.007,0.451-0.012,0.758
						c0,0.334-0.018,0.747-0.1,1.23c-0.065,0.484-0.126,1.047-0.3,1.659c-0.261,1.244-0.822,2.718-1.723,4.285
						c-0.908,1.561-2.23,3.196-4.044,4.59c-1.808,1.38-4.1,2.56-6.756,3.045c-2.637,0.469-5.62,0.399-8.47-0.671
						c-1.434-0.493-2.818-1.24-4.09-2.186c-0.657-0.45-1.233-1.011-1.835-1.553c-0.545-0.599-1.116-1.188-1.586-1.869
						c-1.992-2.64-3.119-6.044-3.148-9.547c0.031-3.503,1.158-6.905,3.15-9.544c0.47-0.681,1.041-1.269,1.586-1.869
						c0.602-0.542,1.177-1.104,1.834-1.553c1.272-0.946,2.656-1.693,4.09-2.186c2.849-1.07,5.832-1.14,8.469-0.671
						c2.655,0.485,4.948,1.664,6.756,3.045c1.814,1.393,3.136,3.029,4.045,4.589c0.901,1.568,1.461,3.042,1.723,4.286
						c0.174,0.613,0.236,1.175,0.3,1.66c0.081,0.483,0.099,0.895,0.1,1.23c0.005,0.308,0.009,0.557,0.012,0.759
						C157.903,423.272,157.898,423.359,157.889,423.359z"/>
				</g>
			</g>
		</g>
	</g>
</g>
</svg>
