<?xml version="1.0" encoding="UTF-8" standalone="no"?>
<!DOCTYPE svg PUBLIC "-//W3C//DTD SVG 20010904//EN"
              "http://www.w3.org/TR/2001/REC-SVG-20010904/DTD/svg10.dtd">

<svg xmlns="http://www.w3.org/2000/svg"
     width="5.02222in" height="3.73333in"
     viewBox="0 0 452 336">
  <path id="Seleção"
        fill="none" stroke="black" stroke-width="1"
        d="M 1.00,166.11
           C 1.00,166.11 1.00,43.00 1.00,43.00
             1.00,43.00 1.00,17.00 1.00,17.00
             1.00,17.00 2.02,6.60 2.02,6.60
             2.02,6.60 10.00,5.00 10.00,5.00
             10.00,5.00 224.00,5.00 224.00,5.00
             224.00,5.00 224.00,43.00 224.00,43.00
             224.00,43.00 228.00,44.00 228.00,44.00
             228.00,44.00 228.00,5.00 228.00,5.00
             228.00,5.00 399.00,5.00 399.00,5.00
             399.00,5.00 444.00,5.00 444.00,5.00
             451.49,5.14 450.99,7.26 451.00,14.00
             451.00,14.00 451.00,166.00 451.00,166.00
             451.00,166.00 269.00,166.00 269.00,166.00
             269.00,166.00 275.00,189.00 275.00,189.00
             275.00,189.00 451.00,189.00 451.00,189.00
             451.00,189.00 451.00,197.00 451.00,197.00
             451.00,197.00 285.00,197.00 285.00,197.00
             282.78,197.00 279.19,196.79 277.31,198.02
             273.87,200.28 275.87,204.31 269.90,209.24
             264.56,213.65 246.80,222.40 240.00,224.00
             240.00,224.00 245.85,242.00 245.85,242.00
             245.85,242.00 253.42,280.00 253.42,280.00
             253.42,280.00 258.00,310.00 258.00,310.00
             258.00,310.00 278.00,310.00 278.00,310.00
             286.50,310.04 294.50,312.42 303.00,310.00
             287.93,301.72 290.31,278.92 307.00,274.00
             301.16,265.15 296.61,258.02 296.10,247.00
             295.19,227.00 312.20,210.96 332.00,212.09
             339.82,212.54 348.61,215.21 355.00,219.79
             357.68,221.71 364.48,228.92 366.42,229.31
             369.36,229.90 373.61,225.10 381.00,224.18
             391.82,222.84 396.99,225.97 407.00,226.00
             408.22,231.21 410.41,231.45 413.82,235.09
             416.64,238.11 419.03,242.20 420.66,246.00
             422.72,250.77 423.00,253.90 423.00,259.00
             423.00,277.14 411.29,286.55 394.00,288.00
             394.00,294.28 394.10,299.58 390.20,304.96
             390.20,304.96 381.00,314.00 381.00,314.00
             381.00,314.00 406.00,317.00 406.00,317.00
             411.44,317.75 416.01,317.94 420.00,322.00
             410.57,326.01 400.05,326.20 390.00,327.17
             390.00,327.17 368.00,329.00 368.00,329.00
             368.00,329.00 350.00,330.00 350.00,330.00
             350.00,330.00 331.00,331.00 331.00,331.00
             331.00,331.00 316.00,331.00 316.00,331.00
             316.00,331.00 299.00,332.00 299.00,332.00
             299.00,332.00 245.00,332.00 245.00,332.00
             245.00,332.00 222.00,333.00 222.00,333.00
             222.00,333.00 207.00,332.00 207.00,332.00
             207.00,332.00 153.00,332.00 153.00,332.00
             153.00,332.00 136.00,331.00 136.00,331.00
             136.00,331.00 122.00,331.00 122.00,331.00
             122.00,331.00 102.00,330.00 102.00,330.00
             102.00,330.00 87.00,329.00 87.00,329.00
             87.00,329.00 62.00,327.17 62.00,327.17
             51.95,326.20 41.43,326.01 32.00,322.00
             36.45,317.48 42.98,317.45 49.00,316.58
             49.00,316.58 96.07,313.00 96.07,313.00
             96.07,313.00 96.07,294.00 96.07,294.00
             96.07,294.00 98.07,287.00 98.07,287.00
             98.32,283.52 95.34,280.70 96.23,275.00
             96.92,270.53 100.05,267.46 100.80,264.43
             101.50,261.63 99.98,258.92 100.13,255.00
             100.47,245.80 106.52,242.12 115.00,242.00
             123.71,241.89 131.89,242.27 133.46,253.00
             134.18,257.58 132.28,259.42 133.46,263.28
             133.46,263.28 135.47,269.00 135.47,269.00
             136.69,274.23 136.10,282.78 131.61,286.40
             128.84,288.64 122.52,288.00 119.00,288.00
             123.07,293.76 121.96,296.31 122.00,303.00
             122.02,305.56 121.73,309.40 124.31,310.96
             126.02,311.87 131.67,311.03 134.00,310.96
             134.00,310.96 158.00,310.96 158.00,310.96
             158.00,310.96 170.00,310.04 170.00,310.04
             170.00,310.04 183.00,310.04 183.00,310.04
             183.00,310.04 176.86,290.31 176.86,290.31
             173.26,285.35 162.17,290.35 157.56,286.40
             151.93,281.58 154.07,273.08 155.22,267.00
             156.35,260.97 151.92,250.82 162.00,246.89
             163.67,246.24 165.25,246.16 167.00,246.00
             164.34,231.42 160.58,218.48 171.33,206.04
             174.35,202.54 178.40,199.88 182.00,197.00
             182.00,197.00 26.00,197.00 26.00,197.00
             26.00,197.00 12.06,197.84 12.06,197.84
             6.82,197.09 7.78,191.17 9.02,189.60
             10.37,187.89 13.06,188.02 15.00,188.17
             15.00,188.17 26.00,189.00 26.00,189.00
             26.00,189.00 190.00,189.00 190.00,189.00
             201.81,188.98 207.51,184.60 219.00,182.00
             218.22,178.69 215.29,168.82 212.58,167.02
             210.30,165.50 202.04,166.00 199.00,166.00
             199.00,166.00 165.00,166.00 165.00,166.00
             165.00,166.00 100.00,166.00 100.00,166.00
             100.00,166.00 84.00,167.00 84.00,167.00
             84.00,167.00 73.00,166.11 73.00,166.11
             73.00,166.11 51.00,166.11 51.00,166.11
             51.00,166.11 1.00,166.11 1.00,166.11 Z
           M 222.00,250.00
           C 222.00,250.00 214.40,228.00 214.40,228.00
             214.40,228.00 209.73,220.78 209.73,220.78
             209.73,220.78 203.00,222.00 203.00,222.00
             203.00,222.00 189.00,226.00 189.00,226.00
             189.00,226.00 193.00,261.00 193.00,261.00
             193.00,261.00 193.00,279.00 193.00,279.00
             193.00,279.00 194.00,310.00 194.00,310.00
             194.00,310.00 247.00,310.00 247.00,310.00
             247.00,310.00 238.00,285.84 238.00,285.84
             232.28,287.78 217.04,290.20 212.39,285.84
             206.78,280.23 209.30,275.04 210.32,269.00
             211.49,262.07 207.14,254.56 217.00,250.74
             218.66,250.10 220.27,250.10 222.00,250.00 Z
           M 57.00,238.47
           C 66.16,237.18 78.11,237.21 81.06,248.00
             82.74,254.10 80.73,256.47 81.06,259.58
             81.06,259.58 83.70,267.00 83.70,267.00
             85.43,273.00 84.73,284.61 77.90,287.40
             76.14,288.12 72.94,288.00 71.00,288.00
             65.71,288.01 51.42,289.40 47.94,285.71
             43.98,281.51 43.27,273.44 44.39,268.00
             44.39,268.00 46.08,262.00 46.08,262.00
             46.82,256.99 42.03,245.74 52.02,240.14
             53.69,239.20 55.19,238.92 57.00,238.47 Z
           M 77.00,256.00
           C 76.96,252.80 77.20,249.87 74.69,247.43
             70.28,243.15 55.50,243.17 51.60,248.23
             49.71,250.68 50.01,254.07 50.00,257.00
             50.00,257.00 62.00,253.10 62.00,253.10
             62.00,253.10 77.00,256.00 77.00,256.00 Z
           M 129.00,259.00
           C 128.97,256.26 129.23,252.83 127.26,250.65
             124.98,248.12 121.14,248.04 118.00,248.00
             109.71,247.91 102.99,248.60 105.00,259.00
             116.85,255.66 116.56,253.76 129.00,259.00 Z
           M 168.00,251.00
           C 160.21,252.30 159.10,254.47 159.00,262.00
             168.78,258.48 169.15,257.80 168.00,251.00 Z
           M 273.00,253.53
           C 279.07,253.37 285.05,254.04 286.60,261.00
             286.60,261.00 287.26,270.00 287.26,270.00
             288.50,275.23 290.67,282.12 285.58,286.40
             282.93,288.63 276.43,288.01 273.00,287.84
             271.46,288.00 268.44,288.06 267.04,287.84
             258.62,285.45 261.72,275.70 262.32,270.00
             263.06,262.97 258.72,255.80 273.00,253.53 Z
           M 227.00,261.00
           C 226.52,259.42 226.21,257.83 225.00,256.57
             222.54,253.99 211.66,253.65 214.00,264.00
             214.00,264.00 227.00,261.00 227.00,261.00 Z
           M 284.00,266.00
           C 283.02,254.02 268.88,257.91 266.74,260.43
             265.29,262.13 265.24,263.93 265.00,266.00
             276.49,263.96 271.86,262.84 284.00,266.00 Z
           M 360.00,312.06
           C 354.55,310.19 351.67,307.74 348.46,303.00
             347.12,301.02 345.42,297.40 342.37,298.62
             340.47,299.38 338.81,303.22 337.45,304.96
             335.32,307.66 332.48,309.65 330.00,312.06
             330.00,312.06 346.00,312.06 346.00,312.06
             350.88,312.63 355.25,313.89 360.00,312.06 Z
           M 376.00,313.00
           C 376.00,313.00 368.00,314.00 368.00,314.00
             368.00,314.00 376.00,313.00 376.00,313.00 Z" />
</svg>
